<?xml version="1.0" encoding="utf-8"?>
<!-- Generator: Adobe Illustrator 25.0.1, SVG Export Plug-In . SVG Version: 6.00 Build 0)  -->
<svg version="1.1" id="OBJECTS" xmlns="http://www.w3.org/2000/svg" xmlns:xlink="http://www.w3.org/1999/xlink" x="0px" y="0px"
	 viewBox="0 0 106.25 131.91" style="enable-background:new 0 0 106.25 131.91;" xml:space="preserve">
<style type="text/css">
	.st0{fill:#ED0F0F;}
</style>
<g>
	<path class="st0" d="M48.96,120.35c0.91,1.44,2.46,2.3,4.16,2.3c0,0,0,0,0,0c1.7,0,3.26-0.87,4.16-2.31
		c1.4-2.24,2.81-4.48,4.22-6.71c16.98-26.97,33.01-52.44,33.01-72.24C94.52,18.57,75.95,0,53.12,0C30.3,0,11.73,18.57,11.73,41.39
		c0,19.98,17.14,47.13,33.72,73.39C46.63,116.65,47.8,118.5,48.96,120.35z M53.12,5c20.07,0,36.39,16.33,36.39,36.39
		c0,18.35-15.66,43.23-32.24,69.57c-1.38,2.2-2.77,4.4-4.15,6.61c-1.14-1.81-2.29-3.63-3.44-5.46
		c-16.2-25.65-32.94-52.18-32.94-70.72C16.73,21.33,33.06,5,53.12,5z"/>
	<path class="st0" d="M76.13,103.5l-1.59-0.2l-0.84,1.37c-1.45,2.36-2.92,4.73-4.4,7.11l4.24,2.64c1.2-1.93,2.39-3.85,3.57-5.76
		c18.02,2.41,24.14,6.73,24.14,8.38c0,3.35-16.99,9.88-48.12,9.88S5,120.39,5,117.04c0-1.65,6.11-5.96,24.1-8.37
		c0.87,1.41,1.74,2.83,2.62,4.24l4.25-2.64c-1.16-1.87-2.31-3.73-3.46-5.6l-0.84-1.37l-1.6,0.2C18.84,104.89,0,108.48,0,117.04
		c0,10.22,27.54,14.88,53.12,14.88s53.12-4.65,53.12-14.88C106.25,108.48,87.38,104.88,76.13,103.5z"/>
	<path class="st0" d="M74.21,41.4c0-11.63-9.46-21.09-21.09-21.09S32.04,29.77,32.04,41.4c0,11.63,9.46,21.09,21.09,21.09
		S74.21,53.03,74.21,41.4z M37.04,41.4c0-8.87,7.22-16.09,16.09-16.09s16.09,7.22,16.09,16.09S62,57.49,53.12,57.49
		S37.04,50.27,37.04,41.4z"/>
</g>
</svg>
